<svg id="icon_deutsche_startups" data-name="icon deutsche startups" xmlns="http://www.w3.org/2000/svg" width="158.155" height="50" viewBox="0 0 158.155 50">
  <g id="Ebene_1" data-name="Ebene 1" transform="translate(0)">
    <rect id="Rectangle_1751" data-name="Rectangle 1751" width="12.181" height="12.181" transform="translate(46.76)" fill="#262626"/>
    <rect id="Rectangle_1752" data-name="Rectangle 1752" width="12.181" height="12.181" transform="translate(46.76 13.486)" fill="#ff6040"/>
    <rect id="Rectangle_1753" data-name="Rectangle 1753" width="12.181" height="12.181" transform="translate(46.76 26.978)" fill="#ffea00"/>
    <rect id="Rectangle_1754" data-name="Rectangle 1754" width="12.181" height="6.088" transform="translate(46.76 40.499)" fill="#a8a7a7"/>
    <rect id="Rectangle_1755" data-name="Rectangle 1755" width="12.181" height="12.181" transform="translate(27.214 14.089) rotate(-9.76)" fill="#ff6040"/>
    <rect id="Rectangle_1756" data-name="Rectangle 1756" width="12.181" height="12.181" transform="translate(29.5 27.381) rotate(-9.76)" fill="#ffea00"/>
    <rect id="Rectangle_1757" data-name="Rectangle 1757" width="12.181" height="6.088" transform="translate(31.795 40.706) rotate(-9.76)" fill="#a8a7a7"/>
    <rect id="Rectangle_1758" data-name="Rectangle 1758" width="12.181" height="12.181" transform="translate(11.397 28.514) rotate(-21.4)" fill="#ffea00"/>
    <rect id="Rectangle_1759" data-name="Rectangle 1759" width="12.181" height="6.088" transform="translate(16.329 41.106) rotate(-21.4)" fill="#a8a7a7"/>
    <rect id="Rectangle_1760" data-name="Rectangle 1760" width="12.181" height="6.088" transform="translate(0 42.099) rotate(-36.44)" fill="#a8a7a7"/>
    <path id="Path_10385" data-name="Path 10385" d="M121.08,10.032V1.24h2.454c1.376,0,2.079.56,2.079,2.1,0,1.06-.173,1.787-1.281,2.1h0c1.191.244,1.465,1.013,1.465,2.121,0,1.584-.757,2.448-2.228,2.448Zm2.281-4.884c1.12,0,1.471-.768,1.471-1.787,0-1.459-.8-1.483-1.424-1.483H121.86v3.27Zm-1.5,4.223h1.245c1.293,0,1.912-.435,1.912-1.727,0-.78-.232-1.841-1.573-1.841H121.86Z" transform="translate(-48.957 -0.501)" fill="#262626"/>
    <path id="Path_10386" data-name="Path 10386" d="M135.086,5.67v6.153h-.637v-.685h0a1.841,1.841,0,0,1-1.549.8c-1.269,0-1.62-.923-1.62-1.924V5.67h.727V9.9c0,.167-.036,1.459,1.025,1.459a1.37,1.37,0,0,0,1.322-1.322V5.67Z" transform="translate(-53.081 -2.293)" fill="#262626"/>
    <path id="Path_10387" data-name="Path 10387" d="M140.973,11.742h-.733V5.589h.733v.756h0a1.787,1.787,0,0,1,1.507-.876c1.525,0,1.686,1.132,1.686,1.936v4.336h-.733v-4.3c0-.721-.28-1.388-1.132-1.388-.661,0-1.328.453-1.328,1.829Z" transform="translate(-56.704 -2.212)" fill="#262626"/>
    <path id="Path_10388" data-name="Path 10388" d="M152.407,9.252h0a1.715,1.715,0,0,1-1.561.888c-1.787,0-1.876-1.787-1.876-3.2,0-1.191,0-3.193,1.888-3.193a1.9,1.9,0,0,1,1.483.727h0V1.24h.727v7.6a6.989,6.989,0,0,0,.089,1.191h-.715Zm-.036-1.739v-1.1c0-.369,0-2.073-1.376-2.073s-1.316,1.191-1.316,2.633c0,2.287.548,2.591,1.34,2.591.691,0,1.352-.56,1.352-2.055Z" transform="translate(-60.234 -0.501)" fill="#262626"/>
    <path id="Path_10389" data-name="Path 10389" d="M159.713,8.818v.477c0,.852.232,1.984,1.388,1.984a1.263,1.263,0,0,0,1.352-1.412h.768a1.861,1.861,0,0,1-2.121,2c-1.06,0-2.121-.423-2.121-2.287V8.061c0-1.787.745-2.591,2.121-2.591,2.121,0,2.121,1.519,2.121,3.348Zm2.776-.6c0-1.364-.22-2.18-1.388-2.18s-1.388.816-1.388,2.18Z" transform="translate(-64.281 -2.212)" fill="#262626"/>
    <path id="Path_10390" data-name="Path 10390" d="M169.82,11.861c-1.328,0-1.853-.643-1.841-1.948h.745c0,.84.191,1.4,1.132,1.4a.959.959,0,0,0,1.048-1.084c0-1.608-2.77-1.191-2.77-3.228,0-1.132.78-1.531,1.853-1.531,1.221,0,1.608.84,1.608,1.787h-.715c-.042-.78-.244-1.191-1.072-1.191a.876.876,0,0,0-.941.888c0,1.537,2.764,1.12,2.764,3.181A1.592,1.592,0,0,1,169.82,11.861Z" transform="translate(-67.92 -2.212)" fill="#262626"/>
    <path id="Path_10391" data-name="Path 10391" d="M176.654,10.894h0l1.5-5.224h.709l-1.8,6.153h-.84L174.39,5.67h.786Z" transform="translate(-70.512 -2.293)" fill="#262626"/>
    <path id="Path_10392" data-name="Path 10392" d="M183.847,8.818v.477c0,.852.232,1.984,1.388,1.984a1.257,1.257,0,0,0,1.352-1.412h.768a1.861,1.861,0,0,1-2.121,2c-1.06,0-2.115-.423-2.115-2.287V8.061c0-1.787.739-2.591,2.115-2.591,2.121,0,2.121,1.519,2.121,3.348Zm2.776-.6c0-1.364-.214-2.18-1.388-2.18s-1.388.816-1.388,2.18Z" transform="translate(-74.042 -2.212)" fill="#262626"/>
    <path id="Path_10393" data-name="Path 10393" d="M193.257,6.416h0a1.864,1.864,0,0,1,1.692-.947v.745a1.465,1.465,0,0,0-1.716,1.567v3.961H192.5V5.588h.733Z" transform="translate(-77.835 -2.211)" fill="#262626"/>
    <path id="Path_10394" data-name="Path 10394" d="M198.06,10.032a3.574,3.574,0,0,0,.071-.6V1.24h.733V4.576h0a1.7,1.7,0,0,1,1.561-.84c2,0,1.841,2.091,1.841,3.193,0,1.352-.113,3.2-1.9,3.2a1.62,1.62,0,0,1-1.549-.864h0v.768Zm2.109-.465c1.352,0,1.388-1.156,1.388-2.591s-.036-2.633-1.388-2.633c-1.191,0-1.328,1.6-1.328,2.52s0,2.7,1.328,2.7Z" transform="translate(-80.083 -0.501)" fill="#262626"/>
    <path id="Path_10395" data-name="Path 10395" d="M210.221,10.986h0a1.984,1.984,0,0,1-1.745.876,1.62,1.62,0,0,1-1.692-1.787c0-2.156,2.168-1.942,3.413-2.037V7.5c0-.9-.268-1.447-1.245-1.447-.673,0-1.191.328-1.191,1.06h-.78c.06-1.191.971-1.644,2.043-1.644.6,0,1.912.06,1.912,1.632v3.091a13.447,13.447,0,0,0,.071,1.549h-.751ZM210.173,8.6c-1.048.036-2.633-.083-2.633,1.418,0,.691.351,1.263,1.108,1.263a1.584,1.584,0,0,0,1.525-1.561Z" transform="translate(-83.606 -2.212)" fill="#262626"/>
    <path id="Path_10396" data-name="Path 10396" d="M217.883,11.742h-.733V5.589h.733v.756h0a1.787,1.787,0,0,1,1.483-.876c1.525,0,1.68,1.132,1.68,1.936v4.336h-.727v-4.3c0-.721-.28-1.388-1.138-1.388-.655,0-1.322.453-1.322,1.829Z" transform="translate(-87.801 -2.212)" fill="#262626"/>
    <path id="Path_10397" data-name="Path 10397" d="M229.3,9.252h0a1.71,1.71,0,0,1-1.573.9c-1.787,0-1.876-1.787-1.876-3.2,0-1.191,0-3.193,1.888-3.193a1.9,1.9,0,0,1,1.483.727h0V1.24h.733v7.6a7.9,7.9,0,0,0,.072,1.221h-.7Zm-.036-1.739v-1.1c0-.369,0-2.073-1.376-2.073s-1.31,1.191-1.31,2.633c0,2.287.548,2.591,1.334,2.591.7,0,1.352-.56,1.352-2.055Z" transform="translate(-91.319 -0.501)" fill="#262626"/>
    <path id="Path_10398" data-name="Path 10398" d="M124.89,24.318a4.867,4.867,0,0,1,2.52.6,3.348,3.348,0,0,1,1.483,2.305,17.275,17.275,0,0,1,.31,3.961c0,2.383-.22,3.711-.84,4.676-.822,1.281-2.466,1.662-4.33,1.662H121v-13.2Zm-.858,11.723c1.442,0,2.651-.185,3.121-1.537a12.115,12.115,0,0,0,.369-3.777,8.91,8.91,0,0,0-.53-3.914,2.449,2.449,0,0,0-2.383-1.036h-1.882V36.04Z" transform="translate(-48.925 -9.831)" fill="#262626"/>
    <path id="Path_10399" data-name="Path 10399" d="M145.528,32.067A7.011,7.011,0,0,1,146,35.141V35.9H140.8v.22c0,2.138.6,2.907,1.787,2.907,1.007,0,1.555-.6,1.7-1.787h1.644c-.054,2.013-1.15,3.014-3.306,3.014a3.765,3.765,0,0,1-1.972-.435c-1.025-.643-1.459-1.59-1.459-4.5,0-3.449.983-4.765,3.413-4.765A3,3,0,0,1,145.528,32.067Zm-1.132,2.7V34.5c0-1.954-.625-2.74-1.829-2.74s-1.787.9-1.787,2.925v.089Z" transform="translate(-56.279 -12.357)" fill="#262626"/>
    <path id="Path_10400" data-name="Path 10400" d="M156.411,31v6.743a1.453,1.453,0,0,0,1.519,1.43,1.844,1.844,0,0,0,1.733-2.049V31h1.573v8.024c0,.405.036.8.036,1.191h-1.543V39.1h-.054a2.6,2.6,0,0,1-2.383,1.263,2.177,2.177,0,0,1-2.383-2.484V31Z" transform="translate(-62.636 -12.534)" fill="#262626"/>
    <path id="Path_10401" data-name="Path 10401" d="M170.127,29.33h1.96v1.191h-1.96v5.611c0,1.132.494,1.31,1.316,1.31a2.734,2.734,0,0,0,.679-.071V38.5a8.238,8.238,0,0,1-1.537.131c-1.608,0-2.007-.6-2.007-1.829V30.521H167V29.33h1.555V27.543l1.549-.673Z" transform="translate(-67.524 -10.865)" fill="#262626"/>
    <path id="Path_10402" data-name="Path 10402" d="M183.29,33.22V33.4h-1.525V33.3c0-.858-.53-1.352-1.549-1.352s-1.465.441-1.465,1.191c0,.876.661.965,3.252,2.3a2.383,2.383,0,0,1,1.406,2.246c0,1.7-1.191,2.633-3.234,2.633S177,39.362,177,37.467v-.149h1.608v.149c0,1.114.53,1.626,1.549,1.626s1.68-.494,1.68-1.316a1.138,1.138,0,0,0-.6-1.06c-.494-.274-1.191-.6-1.715-.893-.363-.185-.751-.387-1.114-.6a2.12,2.12,0,0,1-1.191-1.936c0-1.626,1.239-2.5,3.121-2.5S183.29,31.63,183.29,33.22Z" transform="translate(-71.567 -12.45)" fill="#262626"/>
    <path id="Path_10403" data-name="Path 10403" d="M197.806,33.64v.232h-1.549c0-1.352-.459-1.918-1.465-1.918-1.191,0-1.787.858-1.787,3.538,0,2.43.512,3.574,1.716,3.574.989,0,1.59-.673,1.59-1.99h1.573a2.972,2.972,0,0,1-3.163,3.252A2.754,2.754,0,0,1,192,38.87a6.864,6.864,0,0,1-.548-3.27c0-3.657.917-4.861,3.473-4.861C196.805,30.7,197.806,31.722,197.806,33.64Z" transform="translate(-77.41 -12.428)" fill="#262626"/>
    <path id="Path_10404" data-name="Path 10404" d="M208.249,24.32v5.17a2.472,2.472,0,0,1,2.466-1.37c1.7,0,2.52.929,2.52,2.794v6.612h-1.59V31.319c0-1.424-.494-2.013-1.519-2.013-1.316,0-1.882,1.025-1.882,2.234V37.5H206.7V24.32Z" transform="translate(-83.576 -9.833)" fill="#262626"/>
    <path id="Path_10405" data-name="Path 10405" d="M228.15,32.067a7.029,7.029,0,0,1,.471,3.074V35.9h-5.206v.22c0,2.138.6,2.907,1.787,2.907,1,0,1.549-.6,1.7-1.787h1.644c-.054,2.013-1.15,3.014-3.306,3.014a3.765,3.765,0,0,1-1.972-.435c-1.025-.643-1.465-1.59-1.465-4.5,0-3.449.989-4.765,3.419-4.765A2.98,2.98,0,0,1,228.15,32.067Zm-1.132,2.7V34.5c0-1.954-.625-2.74-1.829-2.74s-1.787.9-1.787,2.925v.089Z" transform="translate(-89.682 -12.357)" fill="#262626"/>
    <path id="Path_10406" data-name="Path 10406" d="M129.244,56.275V56.6H127.3v-.2c0-1.6-.709-2.454-2.21-2.454s-2.317.768-2.317,2.109,1.054,2.132,2.68,2.865a10.972,10.972,0,0,1,1.787,1.031c1.829,1.281,2.109,2.383,2.109,3.574,0,2.454-1.823,3.937-4.521,3.937-2.478,0-4.325-1.138-4.325-4.17v-.6h1.847v.429a2.417,2.417,0,0,0,2.514,2.68,2.327,2.327,0,0,0,2.579-2.335,2.657,2.657,0,0,0-1.7-2.311c-2.383-1.191-3.288-1.727-3.955-2.478a3.663,3.663,0,0,1-.935-2.52c0-2.383,1.662-3.9,4.384-3.9C127.845,52.314,129.244,53.654,129.244,56.275Z" transform="translate(-48.722 -21.131)" fill="#262626"/>
    <path id="Path_10407" data-name="Path 10407" d="M140.879,58.342h2.174v1.316h-2.174v6.231c0,1.263.548,1.465,1.465,1.465a3.02,3.02,0,0,0,.751-.083v1.281a9.532,9.532,0,0,1-1.7.143c-1.787,0-2.234-.673-2.234-2.031v-7H137.43V58.342h1.727V56.371l1.721-.751Z" transform="translate(-55.568 -22.489)" fill="#262626"/>
    <path id="Path_10408" data-name="Path 10408" d="M156.217,62.854V68.3a11.365,11.365,0,0,0,.2,1.984h-1.727l-.077-1.477h-.042a2.549,2.549,0,0,1-2.621,1.7c-1.787,0-2.782-1.114-2.782-3.169,0-2.311,1.191-3.407,4.67-3.407h.709v-.87c0-1.191-.423-1.99-1.68-1.99a1.477,1.477,0,0,0-1.668,1.5v.345h-1.787c.042-2.115,1.162-3.109,3.473-3.109S156.217,60.93,156.217,62.854ZM152.5,69.126c1.382,0,2.073-1.275,2.073-3.246a5.839,5.839,0,0,0,0-.691h-.649c-2.007,0-3.044.488-3.044,2.091-.024,1.179.572,1.847,1.608,1.847Z" transform="translate(-60.315 -24.183)" fill="#262626"/>
    <path id="Path_10409" data-name="Path 10409" d="M170.558,60.031v1.757a5.533,5.533,0,0,0-.828-.06,2.073,2.073,0,0,0-2.293,2.228V70.39h-1.745V61.455c0-.22,0-.649-.042-1.316H167.4v1.584a2.353,2.353,0,0,1,2.639-1.71A1.989,1.989,0,0,1,170.558,60.031Z" transform="translate(-66.978 -24.262)" fill="#262626"/>
    <path id="Path_10410" data-name="Path 10410" d="M179.595,58.342h2.168v1.316h-2.168v6.231c0,1.263.548,1.465,1.459,1.465a2.978,2.978,0,0,0,.751-.083v1.281a9.532,9.532,0,0,1-1.7.143c-1.787,0-2.234-.673-2.234-2.031v-7H176.14V58.342h1.7V56.371l1.727-.751Z" transform="translate(-71.22 -22.489)" fill="#262626"/>
    <path id="Path_10411" data-name="Path 10411" d="M189.831,60.19V67.7a1.608,1.608,0,0,0,1.686,1.579,2.052,2.052,0,0,0,1.93-2.269V60.19h1.745v8.935c0,.447.042.893.042,1.316h-1.727V69.2h-.06a2.9,2.9,0,0,1-2.681,1.4c-1.787,0-2.657-1.019-2.657-2.764V60.19Z" transform="translate(-76.059 -24.337)" fill="#262626"/>
    <path id="Path_10412" data-name="Path 10412" d="M211.861,61.013c.6.768.852,2.007.852,3.878a12.127,12.127,0,0,1-.322,3.449,2.829,2.829,0,0,1-2.978,2.192,2.5,2.5,0,0,1-2.275-1.257v4.932H205.35V60.06H207.1V61.3a2.383,2.383,0,0,1,2.269-1.424A2.889,2.889,0,0,1,211.861,61.013Zm-4.688,6.517a1.85,1.85,0,0,0,1.847,1.662c1.322,0,1.972-1.138,1.972-3.532V64.468a6.493,6.493,0,0,0-.185-1.626,1.833,1.833,0,0,0-1.906-1.561,1.549,1.549,0,0,0-1.376.745A5.839,5.839,0,0,0,207,65.07,9.953,9.953,0,0,0,207.173,67.53Z" transform="translate(-83.03 -24.207)" fill="#262626"/>
    <path id="Path_10413" data-name="Path 10413" d="M228.269,62.652v.2h-1.71v-.143c0-.953-.6-1.5-1.721-1.5-1.036,0-1.626.482-1.626,1.316,0,.977.733,1.078,3.616,2.555a2.627,2.627,0,0,1,1.561,2.5c0,1.882-1.322,2.919-3.574,2.919s-3.514-1.036-3.514-3.127v-.161h1.787v.143c0,1.239.6,1.787,1.727,1.787s1.864-.548,1.864-1.459a1.263,1.263,0,0,0-.691-1.191c-.548-.3-1.316-.691-1.906-.995-.405-.2-.828-.423-1.239-.667a2.383,2.383,0,0,1-1.3-2.15c0-1.787,1.382-2.782,3.473-2.782S228.269,60.883,228.269,62.652Z" transform="translate(-89.479 -24.22)" fill="#262626"/>
    <path id="Path_10414" data-name="Path 10414" d="M242.433,69.976v.453c0,.858.232,1.99,1.388,1.99a1.263,1.263,0,0,0,1.352-1.394h.768a1.861,1.861,0,0,1-2.121,2c-1.06,0-2.121-.429-2.121-2.293V69.237c0-1.787.745-2.6,2.121-2.6,2.121,0,2.121,1.525,2.121,3.354Zm2.776-.6c0-1.364-.22-2.18-1.388-2.18s-1.388.816-1.388,2.18Z" transform="translate(-97.728 -26.945)" fill="#262626"/>
    <path id="Path_10415" data-name="Path 10415" d="M251.31,75.59h.905v.923h-.905Z" transform="translate(-101.614 -30.564)" fill="#262626"/>
    <path id="Path_10416" data-name="Path 10416" d="M259.625,62.38h.756l-2.436,8.792h-.977L254.52,62.38h.828l2.085,7.869h0Z" transform="translate(-102.911 -25.223)" fill="#262626"/>
    <path id="Path_10417" data-name="Path 10417" d="M264,75.59h.9v.923H264Z" transform="translate(-106.745 -30.564)" fill="#262626"/>
  </g>
</svg>
