<svg id="INDUSTRY" xmlns="http://www.w3.org/2000/svg" viewBox="-5114 1516 222.6 235.142">
  <defs>
    <style>
      .cls-1 {
        fill: #31a4ff;
      }

      .cls-2 {
        fill: #fff;
        stroke: rgba(0,0,0,0);
      }

      .cls-3, .cls-5 {
        fill: none;
      }

      .cls-3 {
        stroke: #fff;
        stroke-width: 4px;
      }

      .cls-4 {
        stroke: none;
      }
    </style>
  </defs>
  <g id="_01_badge_-_industry_partners" data-name="01 badge - industry partners" transform="translate(-5472 -126)">
    <rect id="arrow" class="cls-1" width="20" height="20" transform="translate(469 1848.858) rotate(45)"/>
    <circle id="bg_circle_blue" data-name="bg circle blue" class="cls-1" cx="111.3" cy="111.3" r="111.3" transform="translate(358 1642)"/>
    <path id="Path_1346" data-name="Path 1346" class="cls-2" d="M66.266,16h2.618V4.1H66.266Zm5.678,0h2.584V8.435L80.291,16h2.227V4.1H79.934v7.327L74.358,4.1H71.944Zm13.515,0H90.1c3.74,0,6.324-2.6,6.324-5.95v-.034C96.424,6.667,93.84,4.1,90.1,4.1H85.459ZM90.1,6.463a3.418,3.418,0,0,1,3.587,3.587v.034A3.391,3.391,0,0,1,90.1,13.637H88.077V6.463Zm13.7,9.724c3.2,0,5.219-1.768,5.219-5.372V4.1H106.4v6.817c0,1.887-.969,2.856-2.567,2.856s-2.567-1-2.567-2.941V4.1H98.651v6.8C98.651,14.4,100.606,16.187,103.8,16.187Zm12.206-.017c2.567,0,4.369-1.326,4.369-3.689v-.034c0-2.074-1.36-2.941-3.774-3.57-2.057-.527-2.567-.782-2.567-1.564V7.279c0-.578.527-1.037,1.53-1.037a5.584,5.584,0,0,1,3.094,1.173l1.36-1.972A6.889,6.889,0,0,0,115.6,3.93c-2.431,0-4.165,1.428-4.165,3.587v.034c0,2.363,1.547,3.026,3.944,3.638,1.989.51,2.4.85,2.4,1.513v.034c0,.7-.646,1.122-1.717,1.122a5.459,5.459,0,0,1-3.553-1.445l-1.547,1.853A7.573,7.573,0,0,0,116.008,16.17Zm9.248-.17h2.618V6.514h3.621V4.1h-9.86V6.514h3.621Zm8.33,0H136.2V12.192h2.057L140.811,16h3.06l-2.907-4.25a3.7,3.7,0,0,0,2.55-3.689V8.027a3.735,3.735,0,0,0-1.02-2.72A4.742,4.742,0,0,0,139.026,4.1h-5.44ZM136.2,9.88V6.463h2.6c1.275,0,2.057.578,2.057,1.7V8.2c0,1-.731,1.683-2.006,1.683ZM148.886,16H151.5V11.257L156.077,4.1H153.1l-2.89,4.777L147.373,4.1h-3.06l4.573,7.208Zm-84.7,25H66.8V37.43H68.79c2.669,0,4.811-1.428,4.811-4.182v-.034c0-2.431-1.717-4.114-4.556-4.114H64.183ZM66.8,35.1V31.463h2.023c1.309,0,2.125.629,2.125,1.8V33.3a1.843,1.843,0,0,1-2.074,1.8ZM73.414,41h2.669l1.088-2.669H82.2L83.292,41h2.737l-5.1-11.985H78.515Zm4.692-4.981,1.581-3.859,1.581,3.859ZM87.95,41h2.618V37.192h2.057L95.174,41h3.06l-2.907-4.25a3.7,3.7,0,0,0,2.55-3.689v-.034a3.735,3.735,0,0,0-1.02-2.72A4.742,4.742,0,0,0,93.389,29.1H87.95Zm2.618-6.12V31.463h2.6c1.275,0,2.057.578,2.057,1.7V33.2c0,1-.731,1.683-2.006,1.683ZM103.1,41h2.618V31.514h3.621V29.1h-9.86v2.414H103.1Zm8.33,0h2.584V33.435L119.774,41H122V29.1h-2.584v7.327L113.841,29.1h-2.414Zm13.515,0H134V38.671h-6.46v-2.5h5.61V33.843h-5.61V31.429h6.375V29.1h-8.976Zm11.475,0h2.618V37.192h2.057L143.641,41h3.06l-2.907-4.25a3.7,3.7,0,0,0,2.55-3.689v-.034a3.735,3.735,0,0,0-1.02-2.72,4.742,4.742,0,0,0-3.468-1.207h-5.44Zm2.618-6.12V31.463h2.6c1.275,0,2.057.578,2.057,1.7V33.2c0,1-.731,1.683-2.006,1.683Zm13.991,6.29c2.567,0,4.369-1.326,4.369-3.689v-.034c0-2.074-1.36-2.941-3.774-3.57-2.057-.527-2.567-.782-2.567-1.564v-.034c0-.578.527-1.037,1.53-1.037a5.584,5.584,0,0,1,3.094,1.173l1.36-1.972a6.889,6.889,0,0,0-4.42-1.513c-2.431,0-4.165,1.428-4.165,3.587v.034c0,2.363,1.547,3.026,3.944,3.638,1.989.51,2.4.85,2.4,1.513v.034c0,.7-.646,1.122-1.717,1.122a5.459,5.459,0,0,1-3.553-1.445l-1.547,1.853A7.572,7.572,0,0,0,153.025,41.17Z" transform="translate(359 1731)"/>
    <g id="circle_white" data-name="circle white" class="cls-3" transform="translate(369 1653)">
      <circle class="cls-4" cx="100.3" cy="100.3" r="100.3"/>
      <circle class="cls-5" cx="100.3" cy="100.3" r="98.3"/>
    </g>
  </g>
</svg>
