<svg id="TECHNOLOGY" xmlns="http://www.w3.org/2000/svg" viewBox="-4131 1516 222.6 235.142">
  <defs>
    <style>
      .cls-1 {
        fill: #31a4ff;
      }

      .cls-2, .cls-5 {
        fill: none;
      }

      .cls-2 {
        stroke: #fff;
        stroke-width: 4px;
      }

      .cls-3 {
        fill: #fff;
        stroke: rgba(0,0,0,0);
      }

      .cls-4 {
        stroke: none;
      }
    </style>
  </defs>
  <g id="_03_badge_-_technology_partners" data-name="03 badge - technology partners" transform="translate(-5472 -124)">
    <rect id="arrow" class="cls-1" width="20" height="20" transform="translate(1453 1846.858) rotate(45)"/>
    <circle id="bg_blue" data-name="bg blue" class="cls-1" cx="111.3" cy="111.3" r="111.3" transform="translate(1341 1640)"/>
    <g id="circle_white" data-name="circle white" class="cls-2" transform="translate(1352 1651)">
      <circle class="cls-4" cx="100.3" cy="100.3" r="100.3"/>
      <circle class="cls-5" cx="100.3" cy="100.3" r="98.3"/>
    </g>
    <path id="Path_1345" data-name="Path 1345" class="cls-3" d="M51.8,16h2.618V6.514h3.621V4.1h-9.86V6.514H51.8Zm8.33,0H69.19V13.671H62.73v-2.5h5.61V8.843H62.73V6.429H69.1V4.1H60.129Zm17.051.2a6.083,6.083,0,0,0,4.879-2.125L80.393,12.4a4.3,4.3,0,0,1-3.128,1.394,3.534,3.534,0,0,1-3.451-3.74v-.034A3.526,3.526,0,0,1,77.265,6.31a4.392,4.392,0,0,1,3.043,1.343l1.666-1.921A6.14,6.14,0,0,0,77.282,3.9a6.048,6.048,0,0,0-6.205,6.154v.034A6.007,6.007,0,0,0,77.18,16.2Zm7.055-.2h2.618V11.223h4.828V16H94.3V4.1H91.681V8.809H86.853V4.1H84.235ZM97.24,16h2.584V8.435L105.587,16h2.227V4.1H105.23v7.327L99.654,4.1H97.24Zm19.295.2a6.154,6.154,0,0,0,6.341-6.154v-.034a6.327,6.327,0,0,0-12.648.034v.034A6.1,6.1,0,0,0,116.535,16.2Zm.034-2.414a3.615,3.615,0,0,1-3.6-3.74v-.034a3.559,3.559,0,0,1,3.57-3.706,3.615,3.615,0,0,1,3.6,3.74v.034A3.559,3.559,0,0,1,116.569,13.79ZM125.29,16h8.551V13.62h-5.933V4.1H125.29ZM141,16.2a6.154,6.154,0,0,0,6.341-6.154v-.034a6.327,6.327,0,0,0-12.648.034v.034A6.1,6.1,0,0,0,141,16.2Zm.034-2.414a3.615,3.615,0,0,1-3.6-3.74v-.034A3.559,3.559,0,0,1,141,6.31a3.615,3.615,0,0,1,3.6,3.74v.034A3.559,3.559,0,0,1,141.032,13.79Zm14.45,2.414a7.724,7.724,0,0,0,5.083-1.887V9.149H155.4V11.41h2.635v1.7a4.177,4.177,0,0,1-2.465.714,3.565,3.565,0,0,1-3.6-3.774v-.034A3.574,3.574,0,0,1,155.38,6.31a4.382,4.382,0,0,1,3.111,1.207l1.649-1.989A6.534,6.534,0,0,0,155.465,3.9a6.108,6.108,0,0,0-6.239,6.154v.034A5.956,5.956,0,0,0,155.482,16.2Zm10.523-.2h2.618V11.257L173.2,4.1h-2.975l-2.89,4.777L164.492,4.1h-3.06l4.573,7.208ZM64.183,41H66.8V37.43H68.79c2.669,0,4.811-1.428,4.811-4.182v-.034c0-2.431-1.717-4.114-4.556-4.114H64.183ZM66.8,35.1V31.463h2.023c1.309,0,2.125.629,2.125,1.8V33.3a1.843,1.843,0,0,1-2.074,1.8ZM73.414,41h2.669l1.088-2.669H82.2L83.292,41h2.737l-5.1-11.985H78.515Zm4.692-4.981,1.581-3.859,1.581,3.859ZM87.95,41h2.618V37.192h2.057L95.174,41h3.06l-2.907-4.25a3.7,3.7,0,0,0,2.55-3.689v-.034a3.735,3.735,0,0,0-1.02-2.72A4.742,4.742,0,0,0,93.389,29.1H87.95Zm2.618-6.12V31.463h2.6c1.275,0,2.057.578,2.057,1.7V33.2c0,1-.731,1.683-2.006,1.683ZM103.1,41h2.618V31.514h3.621V29.1h-9.86v2.414H103.1Zm8.33,0h2.584V33.435L119.774,41H122V29.1h-2.584v7.327L113.841,29.1h-2.414Zm13.515,0H134V38.671h-6.46v-2.5h5.61V33.843h-5.61V31.429h6.375V29.1h-8.976Zm11.475,0h2.618V37.192h2.057L143.641,41h3.06l-2.907-4.25a3.7,3.7,0,0,0,2.55-3.689v-.034a3.735,3.735,0,0,0-1.02-2.72,4.742,4.742,0,0,0-3.468-1.207h-5.44Zm2.618-6.12V31.463h2.6c1.275,0,2.057.578,2.057,1.7V33.2c0,1-.731,1.683-2.006,1.683Zm13.991,6.29c2.567,0,4.369-1.326,4.369-3.689v-.034c0-2.074-1.36-2.941-3.774-3.57-2.057-.527-2.567-.782-2.567-1.564v-.034c0-.578.527-1.037,1.53-1.037a5.584,5.584,0,0,1,3.094,1.173l1.36-1.972a6.889,6.889,0,0,0-4.42-1.513c-2.431,0-4.165,1.428-4.165,3.587v.034c0,2.363,1.547,3.026,3.944,3.638,1.989.51,2.4.85,2.4,1.513v.034c0,.7-.646,1.122-1.717,1.122a5.459,5.459,0,0,1-3.553-1.445l-1.547,1.853A7.572,7.572,0,0,0,153.025,41.17Z" transform="translate(1343 1728.8)"/>
  </g>
</svg>
